<svg data-v-423bf9ae="" xmlns="http://www.w3.org/2000/svg" viewBox="0 0 475 107" class="iconLeft"><!----><!----><!----><g data-v-423bf9ae="" id="48fbd13e-6489-423d-9e23-da01d63342b2" fill="white" transform="matrix(6.025636261453243,0,0,6.025636261453243,122.49319662118288,-1.9379342929311463)"><path d="M1.23 14L2.97 14C3.32 14 3.63 13.99 3.63 13.79C3.63 13.43 3.00 13.62 3.00 12.87L3.00 10.01C3.00 9.86 3.19 9.79 3.40 9.79L7.95 9.79C8.15 9.79 8.29 9.90 8.29 10.19L8.34 12.95C8.34 13.54 7.76 13.54 7.76 13.83C7.76 13.99 8.06 14 8.19 14L9.83 14C10.30 14 10.57 13.99 10.57 13.75C10.57 13.48 10.00 13.54 10.00 12.98L10.00 5.15C10.00 4.66 10.51 4.70 10.51 4.41C10.51 4.23 10.26 4.20 9.95 4.20L8.55 4.20C8.05 4.20 7.80 4.23 7.80 4.41C7.80 4.73 8.33 4.59 8.33 5.19L8.33 7.80C8.33 8.18 8.12 8.20 7.88 8.20L3.49 8.22C3.22 8.20 3.01 8.16 3.01 7.74L3.01 5.21C3.01 4.63 3.57 4.72 3.57 4.41C3.57 4.21 3.35 4.20 3.12 4.20L1.41 4.20C0.94 4.20 0.80 4.24 0.80 4.41C0.80 4.84 1.29 4.54 1.29 5.21L1.27 12.87C1.27 13.50 0.70 13.50 0.70 13.79C0.70 13.97 0.85 14 1.23 14ZM11.66 14L13.24 14C13.65 14 13.86 13.97 13.86 13.76C13.86 13.29 13.44 13.62 13.65 12.81L13.78 12.32C13.85 12.17 14.01 12.12 14.15 12.12L17.54 12.12C17.72 12.12 17.84 12.15 17.91 12.35L18.16 13.05C18.33 13.52 17.84 13.36 17.84 13.76C17.84 13.97 17.98 14 18.30 14L19.98 14C20.37 14 20.51 13.97 20.51 13.73C20.51 13.41 20.10 13.51 19.89 12.96L16.90 5.22C16.70 4.73 17.16 4.77 17.16 4.47C17.16 4.27 17.04 4.20 16.81 4.20L14.76 4.20C14.55 4.20 14.42 4.27 14.42 4.47C14.42 4.73 14.78 4.72 14.62 5.22L11.96 12.89C11.75 13.51 11.27 13.38 11.27 13.73C11.27 13.96 11.47 14 11.66 14ZM14.49 10.74C14.32 10.74 14.24 10.65 14.29 10.49L15.65 6.55C15.69 6.43 15.82 6.41 15.88 6.57L17.26 10.43C17.32 10.58 17.29 10.74 17.12 10.74ZM24.65 14.03L28.06 7.41C28.56 6.51 28.67 5.56 28.62 5.12C28.55 4.52 28.85 4.77 28.85 4.40C28.85 4.24 28.69 4.20 28.46 4.20L26.71 4.20C26.54 4.20 26.38 4.20 26.38 4.42C26.38 4.79 26.85 4.59 26.94 5.24C26.99 5.63 26.99 6.08 26.68 6.68L24.58 10.71C24.50 10.85 24.39 10.88 24.25 10.65L21.36 5.17C21.06 4.59 21.56 4.79 21.56 4.47C21.56 4.20 21.41 4.20 21.07 4.20L19.26 4.20C19.17 4.20 18.97 4.23 18.97 4.45C18.97 4.73 19.31 4.65 19.59 5.18L24.18 14.01C24.28 14.20 24.57 14.20 24.65 14.03ZM30.04 14L31.63 14C31.72 14 32.13 14 32.13 13.80C32.13 13.50 31.61 13.54 31.61 12.80L31.61 5.32C31.61 4.58 32.12 4.63 32.12 4.41C32.12 4.16 31.72 4.20 31.63 4.20L30.09 4.20C29.93 4.20 29.65 4.20 29.65 4.41C29.65 4.66 30.06 4.59 30.06 5.32L30.06 12.80C30.06 13.47 29.55 13.51 29.55 13.75C29.55 13.99 29.75 14 30.04 14ZM34.17 14L39.84 14C39.97 14 40.08 13.99 40.19 13.80L40.78 12.87C40.85 12.75 40.89 12.47 40.78 12.40C40.50 12.24 40.40 12.60 39.84 12.60L36.08 12.60C35.91 12.60 35.80 12.57 35.80 12.26L35.80 5.24C35.80 4.61 36.26 4.66 36.26 4.44C36.26 4.23 36.05 4.20 35.74 4.20L34.17 4.20C33.87 4.20 33.70 4.27 33.70 4.44C33.70 4.72 34.20 4.47 34.20 5.31L34.20 12.92C34.20 13.58 33.67 13.41 33.67 13.78C33.67 13.99 33.85 14 34.17 14ZM42.06 14L47.73 14C47.85 14 47.96 13.99 48.08 13.80L48.66 12.87C48.73 12.75 48.78 12.47 48.66 12.40C48.38 12.24 48.29 12.60 47.73 12.60L43.96 12.60C43.79 12.60 43.68 12.57 43.68 12.26L43.68 5.24C43.68 4.61 44.14 4.66 44.14 4.44C44.14 4.23 43.93 4.20 43.62 4.20L42.06 4.20C41.75 4.20 41.58 4.27 41.58 4.44C41.58 4.72 42.08 4.47 42.08 5.31L42.08 12.92C42.08 13.58 41.55 13.41 41.55 13.78C41.55 13.99 41.73 14 42.06 14ZM49.55 14L51.13 14C51.53 14 51.74 13.97 51.74 13.76C51.74 13.29 51.32 13.62 51.53 12.81L51.66 12.32C51.73 12.17 51.90 12.12 52.04 12.12L55.43 12.12C55.61 12.12 55.72 12.15 55.79 12.35L56.04 13.05C56.21 13.52 55.72 13.36 55.72 13.76C55.72 13.97 55.86 14 56.18 14L57.86 14C58.25 14 58.39 13.97 58.39 13.73C58.39 13.41 57.99 13.51 57.78 12.96L54.78 5.22C54.59 4.73 55.05 4.77 55.05 4.47C55.05 4.27 54.92 4.20 54.70 4.20L52.64 4.20C52.43 4.20 52.30 4.27 52.30 4.47C52.30 4.73 52.67 4.72 52.50 5.22L49.84 12.89C49.63 13.51 49.15 13.38 49.15 13.73C49.15 13.96 49.35 14 49.55 14ZM52.37 10.74C52.21 10.74 52.12 10.65 52.18 10.49L53.54 6.55C53.58 6.43 53.70 6.41 53.76 6.57L55.15 10.43C55.20 10.58 55.17 10.74 55.01 10.74Z"></path></g><!----><g data-v-423bf9ae="" id="2a13ff8a-a38e-4b53-9b4b-91171bcdcb3b" transform="matrix(1.0888890584309896,0,0,1.0888890584309896,-0.4444529215494768,-0.44446021185916607)" stroke="none" fill="white"><path d="M44.391 23.505c-2.49 0-4.516 2.026-4.516 4.516s2.026 4.515 4.516 4.515c2.489 0 4.515-2.025 4.515-4.515s-2.026-4.516-4.515-4.516zM54.709 77.21a6.046 6.046 0 0 0 3.46 5.457 33.428 33.428 0 0 0 8.207-3.248 5.99 5.99 0 0 0 .424-2.209 6.052 6.052 0 0 0-6.046-6.045 6.052 6.052 0 0 0-6.045 6.045zM87.136 39.863l10.26-2.305C94.14 25.17 86.148 14.683 75.478 8.161l-5.145 9.168c8.12 5.072 14.22 13.082 16.803 22.534zM27.05 51.4a6.052 6.052 0 0 0-6.045-6.046c-1.826 0-3.46.816-4.57 2.1a34.608 34.608 0 0 0-.106 2.547c0 1.965.178 3.889.501 5.762a6.024 6.024 0 0 0 4.175 1.683A6.053 6.053 0 0 0 27.05 51.4z"></path><path d="M83.671 50c0-1.931-.171-3.821-.484-5.663l-6.167 1.385c.01.17.026.338.026.51 0 4.878-3.968 8.846-8.846 8.846-3.705 0-6.882-2.292-8.195-5.532l-13.452 3.022 18.371-32.751A33.518 33.518 0 0 0 50 16.33c-16.387 0-30.034 11.709-33.046 27.216a8.784 8.784 0 0 1 4.051-.991c4.877 0 8.845 3.968 8.845 8.846 0 4.877-3.968 8.846-8.845 8.846a8.762 8.762 0 0 1-3.277-.637C21.865 73.521 34.745 83.671 50 83.671c1.5 0 2.974-.107 4.422-.298a8.81 8.81 0 0 1-2.514-6.163c0-4.877 3.969-8.846 8.846-8.846 4.878 0 8.846 3.969 8.846 8.846 0 .057-.007.11-.008.166C78.113 71.267 83.671 61.286 83.671 50zM37.075 28.021c0-4.034 3.282-7.315 7.316-7.315s7.315 3.281 7.315 7.315c0 4.034-3.281 7.315-7.315 7.315-4.034-.001-7.316-3.282-7.316-7.315z"></path><path d="M76.129 42.336l6.293-1.414c-2.267-8.114-7.494-14.987-14.448-19.387L53.447 47.432l5.913-1.329c.07-4.817 4.006-8.717 8.84-8.717 3.478.001 6.485 2.024 7.929 4.95z"></path><path d="M68.2 40.187c-3.073 0-5.611 2.306-5.991 5.277l11.076-2.489a6.041 6.041 0 0 0-5.085-2.788z"></path><path d="M98.152 40.975L87.9 43.278c.387 2.185.6 4.428.6 6.722 0 21.229-17.271 38.5-38.5 38.5S11.5 71.229 11.5 50 28.771 11.5 50 11.5a38.25 38.25 0 0 1 17.283 4.114l5.138-9.16A48.675 48.675 0 0 0 50 1C22.981 1 1 22.981 1 50c0 27.018 21.981 49 49 49 27.018 0 49-21.982 49-49 0-3.083-.3-6.098-.848-9.025zM64.06 9.125c1.354 0 1.354 2.1 0 2.1s-1.355-2.1 0-2.1zM61.289 5.46c1.354 0 1.354 2.1 0 2.1s-1.354-2.1 0-2.1zm-4.455.802c1.354 0 1.354 2.1 0 2.1s-1.355-2.1 0-2.1zM28.451 87.768c-1.354 0-1.354-2.1 0-2.1s1.354 2.1 0 2.1zm2.769 3.665c-1.354 0-1.354-2.1 0-2.1s1.354 2.1 0 2.1zm4.455-.803c-1.354 0-1.354-2.1 0-2.1s1.354 2.1 0 2.1z"></path><path d="M68.2 52.278a6.049 6.049 0 0 0 6.04-5.931L62.792 48.92a6.047 6.047 0 0 0 5.408 3.358z"></path></g><!----></svg>