<svg data-v-423bf9ae="" xmlns="http://www.w3.org/2000/svg" viewBox="0 0 260.86732784840865 180" class="iconAbove"><!----><!----><!----><g data-v-423bf9ae="" id="96519c12-79b8-492c-ba61-1802ef461ace" fill="black" transform="matrix(5.102040717026833,0,0,5.102040717026833,-3.214288209935603,109.71113967895508)"><path d="M10.78 5.03L10.78 11.35L10.78 11.35Q10.78 11.89 10.84 12.21L10.84 12.21L10.84 12.21Q10.89 12.54 11.05 12.72L11.05 12.72L11.05 12.72Q11.21 12.89 11.52 12.96L11.52 12.96L11.52 12.96Q11.82 13.03 12.31 13.05L12.31 13.05L12.31 13.58L7.77 13.58L7.77 13.05L7.77 13.05Q8.26 13.03 8.56 12.96L8.56 12.96L8.56 12.96Q8.86 12.89 9.03 12.73L9.03 12.73L9.03 12.73Q9.20 12.56 9.25 12.25L9.25 12.25L9.25 12.25Q9.31 11.94 9.31 11.45L9.31 11.45L9.31 8.41L3.64 8.41L3.64 11.35L3.64 11.35Q3.64 11.89 3.70 12.21L3.70 12.21L3.70 12.21Q3.75 12.54 3.91 12.72L3.91 12.72L3.91 12.72Q4.07 12.89 4.38 12.96L4.38 12.96L4.38 12.96Q4.68 13.03 5.17 13.05L5.17 13.05L5.17 13.58L0.63 13.58L0.63 13.05L0.63 13.05Q1.12 13.03 1.42 12.96L1.42 12.96L1.42 12.96Q1.72 12.89 1.89 12.73L1.89 12.73L1.89 12.73Q2.06 12.56 2.11 12.25L2.11 12.25L2.11 12.25Q2.17 11.94 2.17 11.45L2.17 11.45L2.17 4.93L2.17 4.93Q2.17 4.44 2.12 4.14L2.12 4.14L2.12 4.14Q2.07 3.84 1.93 3.66L1.93 3.66L1.93 3.66Q1.78 3.49 1.50 3.42L1.50 3.42L1.50 3.42Q1.22 3.36 0.77 3.33L0.77 3.33L0.77 2.80L5.03 2.80L5.03 3.33L5.03 3.33Q4.58 3.35 4.30 3.42L4.30 3.42L4.30 3.42Q4.03 3.49 3.89 3.67L3.89 3.67L3.89 3.67Q3.74 3.85 3.69 4.17L3.69 4.17L3.69 4.17Q3.64 4.49 3.64 5.03L3.64 5.03L3.64 7.71L9.31 7.71L9.31 4.93L9.31 4.93Q9.31 4.44 9.26 4.14L9.26 4.14L9.26 4.14Q9.21 3.84 9.06 3.66L9.06 3.66L9.06 3.66Q8.92 3.49 8.64 3.42L8.64 3.42L8.64 3.42Q8.36 3.36 7.91 3.33L7.91 3.33L7.91 2.80L12.17 2.80L12.17 3.33L12.17 3.33Q11.72 3.35 11.45 3.42L11.45 3.42L11.45 3.42Q11.17 3.49 11.03 3.67L11.03 3.67L11.03 3.67Q10.88 3.85 10.83 4.17L10.83 4.17L10.83 4.17Q10.78 4.49 10.78 5.03L10.78 5.03ZM17.84 10.54L17.84 9.44L17.84 9.44Q17.04 9.74 16.48 10.04L16.48 10.04L16.48 10.04Q15.93 10.33 15.60 10.63L15.60 10.63L15.60 10.63Q15.26 10.92 15.11 11.21L15.11 11.21L15.11 11.21Q14.97 11.51 14.97 11.82L14.97 11.82L14.97 11.82Q14.97 12.28 15.27 12.57L15.27 12.57L15.27 12.57Q15.58 12.87 16.09 12.87L16.09 12.87L16.09 12.87Q16.45 12.87 16.77 12.68L16.77 12.68L16.77 12.68Q17.08 12.50 17.32 12.19L17.32 12.19L17.32 12.19Q17.56 11.87 17.70 11.45L17.70 11.45L17.70 11.45Q17.84 11.02 17.84 10.54L17.84 10.54ZM15.82 9.72L17.84 8.83L17.84 8.26L17.84 8.26Q17.84 6.55 16.38 6.55L16.38 6.55L16.38 6.55Q16.14 6.55 15.97 6.59L15.97 6.59L15.97 6.59Q15.81 6.64 15.69 6.73L15.69 6.73L15.69 6.73Q15.58 6.83 15.49 7.01L15.49 7.01L15.49 7.01Q15.40 7.20 15.32 7.46L15.32 7.46L15.32 7.46Q15.16 7.87 15.02 8.00L15.02 8.00L15.02 8.00Q14.87 8.13 14.59 8.13L14.59 8.13L14.59 8.13Q13.89 8.13 13.89 7.43L13.89 7.43L13.89 7.43Q13.89 6.76 14.60 6.39L14.60 6.39L14.60 6.39Q15.32 6.02 16.63 6.02L16.63 6.02L16.63 6.02Q18.03 6.02 18.62 6.52L18.62 6.52L18.62 6.52Q19.21 7.01 19.21 8.20L19.21 8.20L19.21 11.34L19.21 11.34Q19.21 12.94 19.84 12.94L19.84 12.94L19.84 12.94Q20.03 12.94 20.22 12.89L20.22 12.89L20.22 12.89Q20.40 12.84 20.52 12.63L20.52 12.63L20.72 12.96L20.72 12.96Q20.55 13.29 20.10 13.50L20.10 13.50L20.10 13.50Q19.66 13.72 19.17 13.72L19.17 13.72L19.17 13.72Q18.55 13.72 18.25 13.33L18.25 13.33L18.25 13.33Q17.95 12.94 17.95 12.22L17.95 12.22L17.88 12.22L17.88 12.22Q17.51 12.91 16.87 13.31L16.87 13.31L16.87 13.31Q16.23 13.71 15.44 13.71L15.44 13.71L15.44 13.71Q14.56 13.71 14.06 13.26L14.06 13.26L14.06 13.26Q13.55 12.81 13.55 12.05L13.55 12.05L13.55 12.05Q13.55 11.72 13.67 11.41L13.67 11.41L13.67 11.41Q13.79 11.10 14.06 10.82L14.06 10.82L14.06 10.82Q14.32 10.54 14.76 10.27L14.76 10.27L14.76 10.27Q15.19 10.00 15.82 9.72L15.82 9.72ZM22.71 5.14L25.20 11.44L27.66 5.36L27.66 5.36Q27.87 4.84 27.96 4.55L27.96 4.55L27.96 4.55Q28.04 4.26 28.04 4.02L28.04 4.02L28.04 4.02Q28.04 3.64 27.81 3.49L27.81 3.49L27.81 3.49Q27.58 3.33 26.95 3.33L26.95 3.33L26.95 2.80L30.35 2.80L30.35 3.33L30.35 3.33Q30.03 3.37 29.80 3.44L29.80 3.44L29.80 3.44Q29.57 3.51 29.39 3.64L29.39 3.64L29.39 3.64Q29.22 3.77 29.09 3.97L29.09 3.97L29.09 3.97Q28.95 4.17 28.83 4.47L28.83 4.47L25.03 13.72L24.54 13.72L20.93 5.00L20.93 5.00Q20.75 4.58 20.57 4.27L20.57 4.27L20.57 4.27Q20.40 3.96 20.19 3.77L20.19 3.77L20.19 3.77Q19.98 3.57 19.71 3.47L19.71 3.47L19.71 3.47Q19.45 3.37 19.08 3.35L19.08 3.35L19.08 2.80L23.65 2.80L23.65 3.35L23.65 3.35Q23.25 3.35 23.01 3.38L23.01 3.38L23.01 3.38Q22.76 3.42 22.62 3.49L22.62 3.49L22.62 3.49Q22.48 3.57 22.43 3.68L22.43 3.68L22.43 3.68Q22.37 3.79 22.37 3.93L22.37 3.93L22.37 3.93Q22.37 4.13 22.44 4.39L22.44 4.39L22.44 4.39Q22.51 4.65 22.71 5.14L22.71 5.14ZM33.31 6.02L33.31 11.35L33.31 11.35Q33.31 11.90 33.36 12.23L33.36 12.23L33.36 12.23Q33.40 12.56 33.54 12.75L33.54 12.75L33.54 12.75Q33.68 12.94 33.94 13.01L33.94 13.01L33.94 13.01Q34.19 13.08 34.61 13.09L34.61 13.09L34.61 13.58L30.59 13.58L30.59 13.09L30.59 13.09Q31.01 13.08 31.28 13.00L31.28 13.00L31.28 13.00Q31.54 12.92 31.69 12.75L31.69 12.75L31.69 12.75Q31.84 12.57 31.89 12.26L31.89 12.26L31.89 12.26Q31.93 11.94 31.93 11.45L31.93 11.45L31.93 9.66L31.93 9.66Q31.93 8.85 31.91 8.32L31.91 8.32L31.91 8.32Q31.89 7.80 31.84 7.60L31.84 7.60L31.84 7.60Q31.77 7.28 31.51 7.16L31.51 7.16L31.51 7.16Q31.26 7.04 30.56 7.04L30.56 7.04L30.56 6.55L33.31 6.02ZM31.70 3.18L31.70 3.18L31.70 3.18Q31.70 2.81 31.95 2.56L31.95 2.56L31.95 2.56Q32.20 2.31 32.56 2.31L32.56 2.31L32.56 2.31Q32.93 2.31 33.18 2.56L33.18 2.56L33.18 2.56Q33.43 2.81 33.43 3.18L33.43 3.18L33.43 3.18Q33.43 3.54 33.18 3.79L33.18 3.79L33.18 3.79Q32.93 4.05 32.56 4.05L32.56 4.05L32.56 4.05Q32.20 4.05 31.95 3.79L31.95 3.79L31.95 3.79Q31.70 3.54 31.70 3.18ZM37.81 1.96L37.81 11.40L37.81 11.40Q37.81 11.93 37.86 12.25L37.86 12.25L37.86 12.25Q37.90 12.57 38.03 12.75L38.03 12.75L38.03 12.75Q38.16 12.94 38.41 13.01L38.41 13.01L38.41 13.01Q38.65 13.08 39.06 13.09L39.06 13.09L39.06 13.58L35.20 13.58L35.20 13.09L35.20 13.09Q35.62 13.08 35.87 13.00L35.87 13.00L35.87 13.00Q36.12 12.92 36.27 12.75L36.27 12.75L36.27 12.75Q36.41 12.59 36.46 12.29L36.46 12.29L36.46 12.29Q36.51 11.98 36.51 11.49L36.51 11.49L36.51 5.46L36.51 5.46Q36.51 4.70 36.49 4.19L36.49 4.19L36.49 4.19Q36.47 3.68 36.43 3.50L36.43 3.50L36.43 3.50Q36.36 3.18 36.10 3.07L36.10 3.07L36.10 3.07Q35.84 2.95 35.17 2.95L35.17 2.95L35.17 2.48L37.81 1.96ZM42.36 1.96L42.36 11.40L42.36 11.40Q42.36 11.93 42.41 12.25L42.41 12.25L42.41 12.25Q42.45 12.57 42.58 12.75L42.58 12.75L42.58 12.75Q42.71 12.94 42.96 13.01L42.96 13.01L42.96 13.01Q43.20 13.08 43.61 13.09L43.61 13.09L43.61 13.58L39.75 13.58L39.75 13.09L39.75 13.09Q40.17 13.08 40.42 13.00L40.42 13.00L40.42 13.00Q40.67 12.92 40.82 12.75L40.82 12.75L40.82 12.75Q40.96 12.59 41.01 12.29L41.01 12.29L41.01 12.29Q41.06 11.98 41.06 11.49L41.06 11.49L41.06 5.46L41.06 5.46Q41.06 4.70 41.04 4.19L41.04 4.19L41.04 4.19Q41.02 3.68 40.98 3.50L40.98 3.50L40.98 3.50Q40.91 3.18 40.65 3.07L40.65 3.07L40.65 3.07Q40.39 2.95 39.72 2.95L39.72 2.95L39.72 2.48L42.36 1.96ZM48.87 10.54L48.87 9.44L48.87 9.44Q48.08 9.74 47.52 10.04L47.52 10.04L47.52 10.04Q46.97 10.33 46.63 10.63L46.63 10.63L46.63 10.63Q46.30 10.92 46.15 11.21L46.15 11.21L46.15 11.21Q46.00 11.51 46.00 11.82L46.00 11.82L46.00 11.82Q46.00 12.28 46.31 12.57L46.31 12.57L46.31 12.57Q46.62 12.87 47.12 12.87L47.12 12.87L47.12 12.87Q47.49 12.87 47.80 12.68L47.80 12.68L47.80 12.68Q48.12 12.50 48.36 12.19L48.36 12.19L48.36 12.19Q48.59 11.87 48.73 11.45L48.73 11.45L48.73 11.45Q48.87 11.02 48.87 10.54L48.87 10.54ZM46.86 9.72L48.87 8.83L48.87 8.26L48.87 8.26Q48.87 6.55 47.42 6.55L47.42 6.55L47.42 6.55Q47.18 6.55 47.01 6.59L47.01 6.59L47.01 6.59Q46.84 6.64 46.73 6.73L46.73 6.73L46.73 6.73Q46.62 6.83 46.53 7.01L46.53 7.01L46.53 7.01Q46.44 7.20 46.35 7.46L46.35 7.46L46.35 7.46Q46.20 7.87 46.05 8.00L46.05 8.00L46.05 8.00Q45.91 8.13 45.63 8.13L45.63 8.13L45.63 8.13Q44.93 8.13 44.93 7.43L44.93 7.43L44.93 7.43Q44.93 6.76 45.64 6.39L45.64 6.39L45.64 6.39Q46.35 6.02 47.67 6.02L47.67 6.02L47.67 6.02Q49.07 6.02 49.66 6.52L49.66 6.52L49.66 6.52Q50.25 7.01 50.25 8.20L50.25 8.20L50.25 11.34L50.25 11.34Q50.25 12.94 50.88 12.94L50.88 12.94L50.88 12.94Q51.07 12.94 51.25 12.89L51.25 12.89L51.25 12.89Q51.44 12.84 51.56 12.63L51.56 12.63L51.76 12.96L51.76 12.96Q51.59 13.29 51.14 13.50L51.14 13.50L51.14 13.50Q50.69 13.72 50.20 13.72L50.20 13.72L50.20 13.72Q49.59 13.72 49.29 13.33L49.29 13.33L49.29 13.33Q48.99 12.94 48.99 12.22L48.99 12.22L48.92 12.22L48.92 12.22Q48.55 12.91 47.91 13.31L47.91 13.31L47.91 13.31Q47.26 13.71 46.48 13.71L46.48 13.71L46.48 13.71Q45.60 13.71 45.09 13.26L45.09 13.26L45.09 13.26Q44.59 12.81 44.59 12.05L44.59 12.05L44.59 12.05Q44.59 11.72 44.71 11.41L44.71 11.41L44.71 11.41Q44.83 11.10 45.09 10.82L45.09 10.82L45.09 10.82Q45.36 10.54 45.79 10.27L45.79 10.27L45.79 10.27Q46.23 10.00 46.86 9.72L46.86 9.72Z"></path></g><!----><g data-v-423bf9ae="" id="df1fbf72-3534-420e-9bd8-163101eb0a42" transform="matrix(1.0888890584309896,0,0,1.0888890584309896,76.55554707845053,-0.44446021185916607)" stroke="none" fill="black"><path d="M44.391 23.505c-2.49 0-4.516 2.026-4.516 4.516s2.026 4.515 4.516 4.515c2.489 0 4.515-2.025 4.515-4.515s-2.026-4.516-4.515-4.516zM54.709 77.21a6.046 6.046 0 0 0 3.46 5.457 33.428 33.428 0 0 0 8.207-3.248 5.99 5.99 0 0 0 .424-2.209 6.052 6.052 0 0 0-6.046-6.045 6.052 6.052 0 0 0-6.045 6.045zM87.136 39.863l10.26-2.305C94.14 25.17 86.148 14.683 75.478 8.161l-5.145 9.168c8.12 5.072 14.22 13.082 16.803 22.534zM27.05 51.4a6.052 6.052 0 0 0-6.045-6.046c-1.826 0-3.46.816-4.57 2.1a34.608 34.608 0 0 0-.106 2.547c0 1.965.178 3.889.501 5.762a6.024 6.024 0 0 0 4.175 1.683A6.053 6.053 0 0 0 27.05 51.4z"></path><path d="M83.671 50c0-1.931-.171-3.821-.484-5.663l-6.167 1.385c.01.17.026.338.026.51 0 4.878-3.968 8.846-8.846 8.846-3.705 0-6.882-2.292-8.195-5.532l-13.452 3.022 18.371-32.751A33.518 33.518 0 0 0 50 16.33c-16.387 0-30.034 11.709-33.046 27.216a8.784 8.784 0 0 1 4.051-.991c4.877 0 8.845 3.968 8.845 8.846 0 4.877-3.968 8.846-8.845 8.846a8.762 8.762 0 0 1-3.277-.637C21.865 73.521 34.745 83.671 50 83.671c1.5 0 2.974-.107 4.422-.298a8.81 8.81 0 0 1-2.514-6.163c0-4.877 3.969-8.846 8.846-8.846 4.878 0 8.846 3.969 8.846 8.846 0 .057-.007.11-.008.166C78.113 71.267 83.671 61.286 83.671 50zM37.075 28.021c0-4.034 3.282-7.315 7.316-7.315s7.315 3.281 7.315 7.315c0 4.034-3.281 7.315-7.315 7.315-4.034-.001-7.316-3.282-7.316-7.315z"></path><path d="M76.129 42.336l6.293-1.414c-2.267-8.114-7.494-14.987-14.448-19.387L53.447 47.432l5.913-1.329c.07-4.817 4.006-8.717 8.84-8.717 3.478.001 6.485 2.024 7.929 4.95z"></path><path d="M68.2 40.187c-3.073 0-5.611 2.306-5.991 5.277l11.076-2.489a6.041 6.041 0 0 0-5.085-2.788z"></path><path d="M98.152 40.975L87.9 43.278c.387 2.185.6 4.428.6 6.722 0 21.229-17.271 38.5-38.5 38.5S11.5 71.229 11.5 50 28.771 11.5 50 11.5a38.25 38.25 0 0 1 17.283 4.114l5.138-9.16A48.675 48.675 0 0 0 50 1C22.981 1 1 22.981 1 50c0 27.018 21.981 49 49 49 27.018 0 49-21.982 49-49 0-3.083-.3-6.098-.848-9.025zM64.06 9.125c1.354 0 1.354 2.1 0 2.1s-1.355-2.1 0-2.1zM61.289 5.46c1.354 0 1.354 2.1 0 2.1s-1.354-2.1 0-2.1zm-4.455.802c1.354 0 1.354 2.1 0 2.1s-1.355-2.1 0-2.1zM28.451 87.768c-1.354 0-1.354-2.1 0-2.1s1.354 2.1 0 2.1zm2.769 3.665c-1.354 0-1.354-2.1 0-2.1s1.354 2.1 0 2.1zm4.455-.803c-1.354 0-1.354-2.1 0-2.1s1.354 2.1 0 2.1z"></path><path d="M68.2 52.278a6.049 6.049 0 0 0 6.04-5.931L62.792 48.92a6.047 6.047 0 0 0 5.408 3.358z"></path></g><!----></svg>